<?xml version="1.0" encoding="utf-8" standalone="no"?>
<!DOCTYPE svg PUBLIC "-//W3C//DTD SVG 1.1//EN"
  "http://www.w3.org/Graphics/SVG/1.1/DTD/svg11.dtd">
<svg xmlns:xlink="http://www.w3.org/1999/xlink" width="691.2pt" height="302.4pt" viewBox="0 0 691.2 302.4" xmlns="http://www.w3.org/2000/svg" version="1.1">
 <metadata>
  <rdf:RDF xmlns:dc="http://purl.org/dc/elements/1.1/" xmlns:cc="http://creativecommons.org/ns#" xmlns:rdf="http://www.w3.org/1999/02/22-rdf-syntax-ns#">
   <cc:Work>
    <dc:type rdf:resource="http://purl.org/dc/dcmitype/StillImage"/>
    <dc:date>2026-06-20T02:24:05.381224</dc:date>
    <dc:format>image/svg+xml</dc:format>
    <dc:creator>
     <cc:Agent>
      <dc:title>Matplotlib v3.10.8, https://matplotlib.org/</dc:title>
     </cc:Agent>
    </dc:creator>
   </cc:Work>
  </rdf:RDF>
 </metadata>
 <defs>
  <style type="text/css">*{stroke-linejoin: round; stroke-linecap: butt}</style>
 </defs>
 <g id="figure_1">
  <g id="patch_1">
   <path d="M 0 302.4 
L 691.2 302.4 
L 691.2 0 
L 0 0 
z
" style="fill: #0d1726"/>
  </g>
  <g id="axes_1">
   <g id="patch_2">
    <path d="M 48.62 260.44 
L 680.4 260.44 
L 680.4 25.44 
L 48.62 25.44 
z
" style="fill: #0b1527"/>
   </g>
   <g id="patch_3">
    <path d="M 351.8744 260.44 
L 402.4168 260.44 
L 402.4168 25.44 
L 351.8744 25.44 
z
" clip-path="url(#p1406fa208e)" style="fill: #7cf7d4; opacity: 0.06; stroke: #7cf7d4; stroke-linejoin: miter"/>
   </g>
   <g id="matplotlib.axis_1">
    <g id="xtick_1">
     <g id="line2d_1">
      <path d="M 48.62 260.44 
L 48.62 25.44 
" clip-path="url(#p1406fa208e)" style="fill: none; stroke: #1f2c45; stroke-opacity: 0.6; stroke-width: 0.8; stroke-linecap: square"/>
     </g>
     <g id="line2d_2">
      <defs>
       <path id="mf3137b36bb" d="M 0 0 
L 0 3.5 
" style="stroke: #7f93b5; stroke-width: 0.8"/>
      </defs>
      <g>
       <use xlink:href="#mf3137b36bb" x="48.62" y="260.44" style="fill: #7f93b5; stroke: #7f93b5; stroke-width: 0.8"/>
      </g>
     </g>
     <g id="text_1">
      <!-- 0 -->
      <g style="fill: #7f93b5" transform="translate(45.839531 274.597813) scale(0.1 -0.1)">
       <defs>
        <path id="ArialMT-30" d="M 266 2259 
Q 266 3072 433 3567 
Q 600 4063 929 4331 
Q 1259 4600 1759 4600 
Q 2128 4600 2406 4451 
Q 2684 4303 2865 4023 
Q 3047 3744 3150 3342 
Q 3253 2941 3253 2259 
Q 3253 1453 3087 958 
Q 2922 463 2592 192 
Q 2263 -78 1759 -78 
Q 1097 -78 719 397 
Q 266 969 266 2259 
z
M 844 2259 
Q 844 1131 1108 757 
Q 1372 384 1759 384 
Q 2147 384 2411 759 
Q 2675 1134 2675 2259 
Q 2675 3391 2411 3762 
Q 2147 4134 1753 4134 
Q 1366 4134 1134 3806 
Q 844 3388 844 2259 
z
" transform="scale(0.015625)"/>
       </defs>
       <use xlink:href="#ArialMT-30"/>
      </g>
     </g>
    </g>
    <g id="xtick_2">
     <g id="line2d_3">
      <path d="M 132.857333 260.44 
L 132.857333 25.44 
" clip-path="url(#p1406fa208e)" style="fill: none; stroke: #1f2c45; stroke-opacity: 0.6; stroke-width: 0.8; stroke-linecap: square"/>
     </g>
     <g id="line2d_4">
      <g>
       <use xlink:href="#mf3137b36bb" x="132.857333" y="260.44" style="fill: #7f93b5; stroke: #7f93b5; stroke-width: 0.8"/>
      </g>
     </g>
     <g id="text_2">
      <!-- 50 -->
      <g style="fill: #7f93b5" transform="translate(127.296396 274.597813) scale(0.1 -0.1)">
       <defs>
        <path id="ArialMT-35" d="M 266 1200 
L 856 1250 
Q 922 819 1161 601 
Q 1400 384 1738 384 
Q 2144 384 2425 690 
Q 2706 997 2706 1503 
Q 2706 1984 2436 2262 
Q 2166 2541 1728 2541 
Q 1456 2541 1237 2417 
Q 1019 2294 894 2097 
L 366 2166 
L 809 4519 
L 3088 4519 
L 3088 3981 
L 1259 3981 
L 1013 2750 
Q 1425 3038 1878 3038 
Q 2478 3038 2890 2622 
Q 3303 2206 3303 1553 
Q 3303 931 2941 478 
Q 2500 -78 1738 -78 
Q 1113 -78 717 272 
Q 322 622 266 1200 
z
" transform="scale(0.015625)"/>
       </defs>
       <use xlink:href="#ArialMT-35"/>
       <use xlink:href="#ArialMT-30" transform="translate(55.615234 0)"/>
      </g>
     </g>
    </g>
    <g id="xtick_3">
     <g id="line2d_5">
      <path d="M 217.094667 260.44 
L 217.094667 25.44 
" clip-path="url(#p1406fa208e)" style="fill: none; stroke: #1f2c45; stroke-opacity: 0.6; stroke-width: 0.8; stroke-linecap: square"/>
     </g>
     <g id="line2d_6">
      <g>
       <use xlink:href="#mf3137b36bb" x="217.094667" y="260.44" style="fill: #7f93b5; stroke: #7f93b5; stroke-width: 0.8"/>
      </g>
     </g>
     <g id="text_3">
      <!-- 100 -->
      <g style="fill: #7f93b5" transform="translate(208.75326 274.597813) scale(0.1 -0.1)">
       <defs>
        <path id="ArialMT-31" d="M 2384 0 
L 1822 0 
L 1822 3584 
Q 1619 3391 1289 3197 
Q 959 3003 697 2906 
L 697 3450 
Q 1169 3672 1522 3987 
Q 1875 4303 2022 4600 
L 2384 4600 
L 2384 0 
z
" transform="scale(0.015625)"/>
       </defs>
       <use xlink:href="#ArialMT-31"/>
       <use xlink:href="#ArialMT-30" transform="translate(55.615234 0)"/>
       <use xlink:href="#ArialMT-30" transform="translate(111.230469 0)"/>
      </g>
     </g>
    </g>
    <g id="xtick_4">
     <g id="line2d_7">
      <path d="M 301.332 260.44 
L 301.332 25.44 
" clip-path="url(#p1406fa208e)" style="fill: none; stroke: #1f2c45; stroke-opacity: 0.6; stroke-width: 0.8; stroke-linecap: square"/>
     </g>
     <g id="line2d_8">
      <g>
       <use xlink:href="#mf3137b36bb" x="301.332" y="260.44" style="fill: #7f93b5; stroke: #7f93b5; stroke-width: 0.8"/>
      </g>
     </g>
     <g id="text_4">
      <!-- 150 -->
      <g style="fill: #7f93b5" transform="translate(292.990594 274.597813) scale(0.1 -0.1)">
       <use xlink:href="#ArialMT-31"/>
       <use xlink:href="#ArialMT-35" transform="translate(55.615234 0)"/>
       <use xlink:href="#ArialMT-30" transform="translate(111.230469 0)"/>
      </g>
     </g>
    </g>
    <g id="xtick_5">
     <g id="line2d_9">
      <path d="M 385.569333 260.44 
L 385.569333 25.44 
" clip-path="url(#p1406fa208e)" style="fill: none; stroke: #1f2c45; stroke-opacity: 0.6; stroke-width: 0.8; stroke-linecap: square"/>
     </g>
     <g id="line2d_10">
      <g>
       <use xlink:href="#mf3137b36bb" x="385.569333" y="260.44" style="fill: #7f93b5; stroke: #7f93b5; stroke-width: 0.8"/>
      </g>
     </g>
     <g id="text_5">
      <!-- 200 -->
      <g style="fill: #7f93b5" transform="translate(377.227927 274.597813) scale(0.1 -0.1)">
       <defs>
        <path id="ArialMT-32" d="M 3222 541 
L 3222 0 
L 194 0 
Q 188 203 259 391 
Q 375 700 629 1000 
Q 884 1300 1366 1694 
Q 2113 2306 2375 2664 
Q 2638 3022 2638 3341 
Q 2638 3675 2398 3904 
Q 2159 4134 1775 4134 
Q 1369 4134 1125 3890 
Q 881 3647 878 3216 
L 300 3275 
Q 359 3922 746 4261 
Q 1134 4600 1788 4600 
Q 2447 4600 2831 4234 
Q 3216 3869 3216 3328 
Q 3216 3053 3103 2787 
Q 2991 2522 2730 2228 
Q 2469 1934 1863 1422 
Q 1356 997 1212 845 
Q 1069 694 975 541 
L 3222 541 
z
" transform="scale(0.015625)"/>
       </defs>
       <use xlink:href="#ArialMT-32"/>
       <use xlink:href="#ArialMT-30" transform="translate(55.615234 0)"/>
       <use xlink:href="#ArialMT-30" transform="translate(111.230469 0)"/>
      </g>
     </g>
    </g>
    <g id="xtick_6">
     <g id="line2d_11">
      <path d="M 469.806667 260.44 
L 469.806667 25.44 
" clip-path="url(#p1406fa208e)" style="fill: none; stroke: #1f2c45; stroke-opacity: 0.6; stroke-width: 0.8; stroke-linecap: square"/>
     </g>
     <g id="line2d_12">
      <g>
       <use xlink:href="#mf3137b36bb" x="469.806667" y="260.44" style="fill: #7f93b5; stroke: #7f93b5; stroke-width: 0.8"/>
      </g>
     </g>
     <g id="text_6">
      <!-- 250 -->
      <g style="fill: #7f93b5" transform="translate(461.46526 274.597813) scale(0.1 -0.1)">
       <use xlink:href="#ArialMT-32"/>
       <use xlink:href="#ArialMT-35" transform="translate(55.615234 0)"/>
       <use xlink:href="#ArialMT-30" transform="translate(111.230469 0)"/>
      </g>
     </g>
    </g>
    <g id="xtick_7">
     <g id="line2d_13">
      <path d="M 554.044 260.44 
L 554.044 25.44 
" clip-path="url(#p1406fa208e)" style="fill: none; stroke: #1f2c45; stroke-opacity: 0.6; stroke-width: 0.8; stroke-linecap: square"/>
     </g>
     <g id="line2d_14">
      <g>
       <use xlink:href="#mf3137b36bb" x="554.044" y="260.44" style="fill: #7f93b5; stroke: #7f93b5; stroke-width: 0.8"/>
      </g>
     </g>
     <g id="text_7">
      <!-- 300 -->
      <g style="fill: #7f93b5" transform="translate(545.702594 274.597813) scale(0.1 -0.1)">
       <defs>
        <path id="ArialMT-33" d="M 269 1209 
L 831 1284 
Q 928 806 1161 595 
Q 1394 384 1728 384 
Q 2125 384 2398 659 
Q 2672 934 2672 1341 
Q 2672 1728 2419 1979 
Q 2166 2231 1775 2231 
Q 1616 2231 1378 2169 
L 1441 2663 
Q 1497 2656 1531 2656 
Q 1891 2656 2178 2843 
Q 2466 3031 2466 3422 
Q 2466 3731 2256 3934 
Q 2047 4138 1716 4138 
Q 1388 4138 1169 3931 
Q 950 3725 888 3313 
L 325 3413 
Q 428 3978 793 4289 
Q 1159 4600 1703 4600 
Q 2078 4600 2393 4439 
Q 2709 4278 2876 4000 
Q 3044 3722 3044 3409 
Q 3044 3113 2884 2869 
Q 2725 2625 2413 2481 
Q 2819 2388 3044 2092 
Q 3269 1797 3269 1353 
Q 3269 753 2831 336 
Q 2394 -81 1725 -81 
Q 1122 -81 723 278 
Q 325 638 269 1209 
z
" transform="scale(0.015625)"/>
       </defs>
       <use xlink:href="#ArialMT-33"/>
       <use xlink:href="#ArialMT-30" transform="translate(55.615234 0)"/>
       <use xlink:href="#ArialMT-30" transform="translate(111.230469 0)"/>
      </g>
     </g>
    </g>
    <g id="xtick_8">
     <g id="line2d_15">
      <path d="M 638.281333 260.44 
L 638.281333 25.44 
" clip-path="url(#p1406fa208e)" style="fill: none; stroke: #1f2c45; stroke-opacity: 0.6; stroke-width: 0.8; stroke-linecap: square"/>
     </g>
     <g id="line2d_16">
      <g>
       <use xlink:href="#mf3137b36bb" x="638.281333" y="260.44" style="fill: #7f93b5; stroke: #7f93b5; stroke-width: 0.8"/>
      </g>
     </g>
     <g id="text_8">
      <!-- 350 -->
      <g style="fill: #7f93b5" transform="translate(629.939927 274.597813) scale(0.1 -0.1)">
       <use xlink:href="#ArialMT-33"/>
       <use xlink:href="#ArialMT-35" transform="translate(55.615234 0)"/>
       <use xlink:href="#ArialMT-30" transform="translate(111.230469 0)"/>
      </g>
     </g>
    </g>
    <g id="text_9">
     <!-- time (s) -->
     <g style="fill: #d8e2f4" transform="translate(347.845937 287.865) scale(0.1 -0.1)">
      <defs>
       <path id="ArialMT-74" d="M 1650 503 
L 1731 6 
Q 1494 -44 1306 -44 
Q 1000 -44 831 53 
Q 663 150 594 308 
Q 525 466 525 972 
L 525 2881 
L 113 2881 
L 113 3319 
L 525 3319 
L 525 4141 
L 1084 4478 
L 1084 3319 
L 1650 3319 
L 1650 2881 
L 1084 2881 
L 1084 941 
Q 1084 700 1114 631 
Q 1144 563 1211 522 
Q 1278 481 1403 481 
Q 1497 481 1650 503 
z
" transform="scale(0.015625)"/>
       <path id="ArialMT-69" d="M 425 3934 
L 425 4581 
L 988 4581 
L 988 3934 
L 425 3934 
z
M 425 0 
L 425 3319 
L 988 3319 
L 988 0 
L 425 0 
z
" transform="scale(0.015625)"/>
       <path id="ArialMT-6d" d="M 422 0 
L 422 3319 
L 925 3319 
L 925 2853 
Q 1081 3097 1340 3245 
Q 1600 3394 1931 3394 
Q 2300 3394 2536 3241 
Q 2772 3088 2869 2813 
Q 3263 3394 3894 3394 
Q 4388 3394 4653 3120 
Q 4919 2847 4919 2278 
L 4919 0 
L 4359 0 
L 4359 2091 
Q 4359 2428 4304 2576 
Q 4250 2725 4106 2815 
Q 3963 2906 3769 2906 
Q 3419 2906 3187 2673 
Q 2956 2441 2956 1928 
L 2956 0 
L 2394 0 
L 2394 2156 
Q 2394 2531 2256 2718 
Q 2119 2906 1806 2906 
Q 1569 2906 1367 2781 
Q 1166 2656 1075 2415 
Q 984 2175 984 1722 
L 984 0 
L 422 0 
z
" transform="scale(0.015625)"/>
       <path id="ArialMT-65" d="M 2694 1069 
L 3275 997 
Q 3138 488 2766 206 
Q 2394 -75 1816 -75 
Q 1088 -75 661 373 
Q 234 822 234 1631 
Q 234 2469 665 2931 
Q 1097 3394 1784 3394 
Q 2450 3394 2872 2941 
Q 3294 2488 3294 1666 
Q 3294 1616 3291 1516 
L 816 1516 
Q 847 969 1125 678 
Q 1403 388 1819 388 
Q 2128 388 2347 550 
Q 2566 713 2694 1069 
z
M 847 1978 
L 2700 1978 
Q 2663 2397 2488 2606 
Q 2219 2931 1791 2931 
Q 1403 2931 1139 2672 
Q 875 2413 847 1978 
z
" transform="scale(0.015625)"/>
       <path id="ArialMT-20" transform="scale(0.015625)"/>
       <path id="ArialMT-28" d="M 1497 -1347 
Q 1031 -759 709 28 
Q 388 816 388 1659 
Q 388 2403 628 3084 
Q 909 3875 1497 4659 
L 1900 4659 
Q 1522 4009 1400 3731 
Q 1209 3300 1100 2831 
Q 966 2247 966 1656 
Q 966 153 1900 -1347 
L 1497 -1347 
z
" transform="scale(0.015625)"/>
       <path id="ArialMT-73" d="M 197 991 
L 753 1078 
Q 800 744 1014 566 
Q 1228 388 1613 388 
Q 2000 388 2187 545 
Q 2375 703 2375 916 
Q 2375 1106 2209 1216 
Q 2094 1291 1634 1406 
Q 1016 1563 777 1677 
Q 538 1791 414 1992 
Q 291 2194 291 2438 
Q 291 2659 392 2848 
Q 494 3038 669 3163 
Q 800 3259 1026 3326 
Q 1253 3394 1513 3394 
Q 1903 3394 2198 3281 
Q 2494 3169 2634 2976 
Q 2775 2784 2828 2463 
L 2278 2388 
Q 2241 2644 2061 2787 
Q 1881 2931 1553 2931 
Q 1166 2931 1000 2803 
Q 834 2675 834 2503 
Q 834 2394 903 2306 
Q 972 2216 1119 2156 
Q 1203 2125 1616 2013 
Q 2213 1853 2448 1751 
Q 2684 1650 2818 1456 
Q 2953 1263 2953 975 
Q 2953 694 2789 445 
Q 2625 197 2315 61 
Q 2006 -75 1616 -75 
Q 969 -75 630 194 
Q 291 463 197 991 
z
" transform="scale(0.015625)"/>
       <path id="ArialMT-29" d="M 791 -1347 
L 388 -1347 
Q 1322 153 1322 1656 
Q 1322 2244 1188 2822 
Q 1081 3291 891 3722 
Q 769 4003 388 4659 
L 791 4659 
Q 1378 3875 1659 3084 
Q 1900 2403 1900 1659 
Q 1900 816 1576 28 
Q 1253 -759 791 -1347 
z
" transform="scale(0.015625)"/>
      </defs>
      <use xlink:href="#ArialMT-74"/>
      <use xlink:href="#ArialMT-69" transform="translate(27.783203 0)"/>
      <use xlink:href="#ArialMT-6d" transform="translate(50 0)"/>
      <use xlink:href="#ArialMT-65" transform="translate(133.300781 0)"/>
      <use xlink:href="#ArialMT-20" transform="translate(188.916016 0)"/>
      <use xlink:href="#ArialMT-28" transform="translate(216.699219 0)"/>
      <use xlink:href="#ArialMT-73" transform="translate(250 0)"/>
      <use xlink:href="#ArialMT-29" transform="translate(300 0)"/>
     </g>
    </g>
   </g>
   <g id="matplotlib.axis_2">
    <g id="ytick_1">
     <g id="line2d_17">
      <path d="M 48.62 260.44 
L 680.4 260.44 
" clip-path="url(#p1406fa208e)" style="fill: none; stroke: #1f2c45; stroke-opacity: 0.6; stroke-width: 0.8; stroke-linecap: square"/>
     </g>
     <g id="line2d_18">
      <defs>
       <path id="mc813230e39" d="M 0 0 
L -3.5 0 
" style="stroke: #7f93b5; stroke-width: 0.8"/>
      </defs>
      <g>
       <use xlink:href="#mc813230e39" x="48.62" y="260.44" style="fill: #7f93b5; stroke: #7f93b5; stroke-width: 0.8"/>
      </g>
     </g>
     <g id="text_10">
      <!-- 0 -->
      <g style="fill: #7f93b5" transform="translate(36.059063 264.018906) scale(0.1 -0.1)">
       <use xlink:href="#ArialMT-30"/>
      </g>
     </g>
    </g>
    <g id="ytick_2">
     <g id="line2d_19">
      <path d="M 48.62 209.353043 
L 680.4 209.353043 
" clip-path="url(#p1406fa208e)" style="fill: none; stroke: #1f2c45; stroke-opacity: 0.6; stroke-width: 0.8; stroke-linecap: square"/>
     </g>
     <g id="line2d_20">
      <g>
       <use xlink:href="#mc813230e39" x="48.62" y="209.353043" style="fill: #7f93b5; stroke: #7f93b5; stroke-width: 0.8"/>
      </g>
     </g>
     <g id="text_11">
      <!-- 50 -->
      <g style="fill: #7f93b5" transform="translate(30.498125 212.93195) scale(0.1 -0.1)">
       <use xlink:href="#ArialMT-35"/>
       <use xlink:href="#ArialMT-30" transform="translate(55.615234 0)"/>
      </g>
     </g>
    </g>
    <g id="ytick_3">
     <g id="line2d_21">
      <path d="M 48.62 158.266087 
L 680.4 158.266087 
" clip-path="url(#p1406fa208e)" style="fill: none; stroke: #1f2c45; stroke-opacity: 0.6; stroke-width: 0.8; stroke-linecap: square"/>
     </g>
     <g id="line2d_22">
      <g>
       <use xlink:href="#mc813230e39" x="48.62" y="158.266087" style="fill: #7f93b5; stroke: #7f93b5; stroke-width: 0.8"/>
      </g>
     </g>
     <g id="text_12">
      <!-- 100 -->
      <g style="fill: #7f93b5" transform="translate(24.937188 161.844993) scale(0.1 -0.1)">
       <use xlink:href="#ArialMT-31"/>
       <use xlink:href="#ArialMT-30" transform="translate(55.615234 0)"/>
       <use xlink:href="#ArialMT-30" transform="translate(111.230469 0)"/>
      </g>
     </g>
    </g>
    <g id="ytick_4">
     <g id="line2d_23">
      <path d="M 48.62 107.17913 
L 680.4 107.17913 
" clip-path="url(#p1406fa208e)" style="fill: none; stroke: #1f2c45; stroke-opacity: 0.6; stroke-width: 0.8; stroke-linecap: square"/>
     </g>
     <g id="line2d_24">
      <g>
       <use xlink:href="#mc813230e39" x="48.62" y="107.17913" style="fill: #7f93b5; stroke: #7f93b5; stroke-width: 0.8"/>
      </g>
     </g>
     <g id="text_13">
      <!-- 150 -->
      <g style="fill: #7f93b5" transform="translate(24.937188 110.758037) scale(0.1 -0.1)">
       <use xlink:href="#ArialMT-31"/>
       <use xlink:href="#ArialMT-35" transform="translate(55.615234 0)"/>
       <use xlink:href="#ArialMT-30" transform="translate(111.230469 0)"/>
      </g>
     </g>
    </g>
    <g id="ytick_5">
     <g id="line2d_25">
      <path d="M 48.62 56.092174 
L 680.4 56.092174 
" clip-path="url(#p1406fa208e)" style="fill: none; stroke: #1f2c45; stroke-opacity: 0.6; stroke-width: 0.8; stroke-linecap: square"/>
     </g>
     <g id="line2d_26">
      <g>
       <use xlink:href="#mc813230e39" x="48.62" y="56.092174" style="fill: #7f93b5; stroke: #7f93b5; stroke-width: 0.8"/>
      </g>
     </g>
     <g id="text_14">
      <!-- 200 -->
      <g style="fill: #7f93b5" transform="translate(24.937188 59.67108) scale(0.1 -0.1)">
       <use xlink:href="#ArialMT-32"/>
       <use xlink:href="#ArialMT-30" transform="translate(55.615234 0)"/>
       <use xlink:href="#ArialMT-30" transform="translate(111.230469 0)"/>
      </g>
     </g>
    </g>
    <g id="text_15">
     <!-- requests / second -->
     <g style="fill: #d8e2f4" transform="translate(18.949688 182.404844) rotate(-90) scale(0.1 -0.1)">
      <defs>
       <path id="ArialMT-72" d="M 416 0 
L 416 3319 
L 922 3319 
L 922 2816 
Q 1116 3169 1280 3281 
Q 1444 3394 1641 3394 
Q 1925 3394 2219 3213 
L 2025 2691 
Q 1819 2813 1613 2813 
Q 1428 2813 1281 2702 
Q 1134 2591 1072 2394 
Q 978 2094 978 1738 
L 978 0 
L 416 0 
z
" transform="scale(0.015625)"/>
       <path id="ArialMT-71" d="M 2538 -1272 
L 2538 353 
Q 2406 169 2170 47 
Q 1934 -75 1669 -75 
Q 1078 -75 651 397 
Q 225 869 225 1691 
Q 225 2191 398 2587 
Q 572 2984 901 3189 
Q 1231 3394 1625 3394 
Q 2241 3394 2594 2875 
L 2594 3319 
L 3100 3319 
L 3100 -1272 
L 2538 -1272 
z
M 803 1669 
Q 803 1028 1072 708 
Q 1341 388 1716 388 
Q 2075 388 2334 692 
Q 2594 997 2594 1619 
Q 2594 2281 2320 2615 
Q 2047 2950 1678 2950 
Q 1313 2950 1058 2639 
Q 803 2328 803 1669 
z
" transform="scale(0.015625)"/>
       <path id="ArialMT-75" d="M 2597 0 
L 2597 488 
Q 2209 -75 1544 -75 
Q 1250 -75 995 37 
Q 741 150 617 320 
Q 494 491 444 738 
Q 409 903 409 1263 
L 409 3319 
L 972 3319 
L 972 1478 
Q 972 1038 1006 884 
Q 1059 663 1231 536 
Q 1403 409 1656 409 
Q 1909 409 2131 539 
Q 2353 669 2445 892 
Q 2538 1116 2538 1541 
L 2538 3319 
L 3100 3319 
L 3100 0 
L 2597 0 
z
" transform="scale(0.015625)"/>
       <path id="ArialMT-2f" d="M 0 -78 
L 1328 4659 
L 1778 4659 
L 453 -78 
L 0 -78 
z
" transform="scale(0.015625)"/>
       <path id="ArialMT-63" d="M 2588 1216 
L 3141 1144 
Q 3050 572 2676 248 
Q 2303 -75 1759 -75 
Q 1078 -75 664 370 
Q 250 816 250 1647 
Q 250 2184 428 2587 
Q 606 2991 970 3192 
Q 1334 3394 1763 3394 
Q 2303 3394 2647 3120 
Q 2991 2847 3088 2344 
L 2541 2259 
Q 2463 2594 2264 2762 
Q 2066 2931 1784 2931 
Q 1359 2931 1093 2626 
Q 828 2322 828 1663 
Q 828 994 1084 691 
Q 1341 388 1753 388 
Q 2084 388 2306 591 
Q 2528 794 2588 1216 
z
" transform="scale(0.015625)"/>
       <path id="ArialMT-6f" d="M 213 1659 
Q 213 2581 725 3025 
Q 1153 3394 1769 3394 
Q 2453 3394 2887 2945 
Q 3322 2497 3322 1706 
Q 3322 1066 3130 698 
Q 2938 331 2570 128 
Q 2203 -75 1769 -75 
Q 1072 -75 642 372 
Q 213 819 213 1659 
z
M 791 1659 
Q 791 1022 1069 705 
Q 1347 388 1769 388 
Q 2188 388 2466 706 
Q 2744 1025 2744 1678 
Q 2744 2294 2464 2611 
Q 2184 2928 1769 2928 
Q 1347 2928 1069 2612 
Q 791 2297 791 1659 
z
" transform="scale(0.015625)"/>
       <path id="ArialMT-6e" d="M 422 0 
L 422 3319 
L 928 3319 
L 928 2847 
Q 1294 3394 1984 3394 
Q 2284 3394 2536 3286 
Q 2788 3178 2913 3003 
Q 3038 2828 3088 2588 
Q 3119 2431 3119 2041 
L 3119 0 
L 2556 0 
L 2556 2019 
Q 2556 2363 2490 2533 
Q 2425 2703 2258 2804 
Q 2091 2906 1866 2906 
Q 1506 2906 1245 2678 
Q 984 2450 984 1813 
L 984 0 
L 422 0 
z
" transform="scale(0.015625)"/>
       <path id="ArialMT-64" d="M 2575 0 
L 2575 419 
Q 2259 -75 1647 -75 
Q 1250 -75 917 144 
Q 584 363 401 755 
Q 219 1147 219 1656 
Q 219 2153 384 2558 
Q 550 2963 881 3178 
Q 1213 3394 1622 3394 
Q 1922 3394 2156 3267 
Q 2391 3141 2538 2938 
L 2538 4581 
L 3097 4581 
L 3097 0 
L 2575 0 
z
M 797 1656 
Q 797 1019 1065 703 
Q 1334 388 1700 388 
Q 2069 388 2326 689 
Q 2584 991 2584 1609 
Q 2584 2291 2321 2609 
Q 2059 2928 1675 2928 
Q 1300 2928 1048 2622 
Q 797 2316 797 1656 
z
" transform="scale(0.015625)"/>
      </defs>
      <use xlink:href="#ArialMT-72"/>
      <use xlink:href="#ArialMT-65" transform="translate(33.300781 0)"/>
      <use xlink:href="#ArialMT-71" transform="translate(88.916016 0)"/>
      <use xlink:href="#ArialMT-75" transform="translate(144.53125 0)"/>
      <use xlink:href="#ArialMT-65" transform="translate(200.146484 0)"/>
      <use xlink:href="#ArialMT-73" transform="translate(255.761719 0)"/>
      <use xlink:href="#ArialMT-74" transform="translate(305.761719 0)"/>
      <use xlink:href="#ArialMT-73" transform="translate(333.544922 0)"/>
      <use xlink:href="#ArialMT-20" transform="translate(383.544922 0)"/>
      <use xlink:href="#ArialMT-2f" transform="translate(411.328125 0)"/>
      <use xlink:href="#ArialMT-20" transform="translate(439.111328 0)"/>
      <use xlink:href="#ArialMT-73" transform="translate(466.894531 0)"/>
      <use xlink:href="#ArialMT-65" transform="translate(516.894531 0)"/>
      <use xlink:href="#ArialMT-63" transform="translate(572.509766 0)"/>
      <use xlink:href="#ArialMT-6f" transform="translate(622.509766 0)"/>
      <use xlink:href="#ArialMT-6e" transform="translate(678.125 0)"/>
      <use xlink:href="#ArialMT-64" transform="translate(733.740234 0)"/>
     </g>
    </g>
   </g>
   <g id="line2d_27">
    <path d="M 48.62 240.005217 
L 73.8912 240.005217 
L 99.1624 240.005217 
L 124.4336 240.005217 
L 149.7048 240.005217 
L 174.976 240.005217 
L 200.2472 240.005217 
L 225.5184 240.005217 
L 250.7896 240.005217 
L 276.0608 240.005217 
L 301.332 240.005217 
L 326.6032 240.005217 
L 351.8744 56.092174 
L 377.1456 56.092174 
L 402.4168 240.005217 
L 427.688 240.005217 
L 452.9592 240.005217 
L 478.2304 240.005217 
L 503.5016 240.005217 
L 528.7728 240.005217 
L 554.044 240.005217 
L 579.3152 240.005217 
L 604.5864 240.005217 
L 629.8576 240.005217 
L 655.1288 240.005217 
L 680.4 240.005217 
" clip-path="url(#p1406fa208e)" style="fill: none; stroke: #7cf7d4; stroke-width: 2.6; stroke-linecap: square"/>
   </g>
   <g id="line2d_28">
    <path d="M 48.62 240.005217 
L 73.8912 240.005217 
L 99.1624 240.005217 
L 124.4336 240.005217 
L 149.7048 240.005217 
L 174.976 240.005217 
L 200.2472 240.005217 
L 225.5184 240.005217 
L 250.7896 240.005217 
L 276.0608 240.005217 
L 301.332 240.005217 
L 326.6032 240.005217 
L 351.8744 175.635652 
L 377.1456 133.795435 
L 402.4168 170.968859 
L 427.688 195.131584 
L 452.9592 210.837356 
L 478.2304 221.046107 
L 503.5016 227.681796 
L 528.7728 231.994993 
L 554.044 234.798572 
L 579.3152 236.620898 
L 604.5864 237.80541 
L 629.8576 238.575342 
L 655.1288 239.075799 
L 680.4 239.401095 
" clip-path="url(#p1406fa208e)" style="fill: none; stroke-dasharray: 7.4,3.2; stroke-dashoffset: 0; stroke: #5cc8ff; stroke-width: 2"/>
   </g>
   <g id="patch_4">
    <path d="M 48.62 260.44 
L 48.62 25.44 
" style="fill: none; stroke: #1f2c45; stroke-width: 0.8; stroke-linejoin: miter; stroke-linecap: square"/>
   </g>
   <g id="patch_5">
    <path d="M 48.62 260.44 
L 680.4 260.44 
" style="fill: none; stroke: #1f2c45; stroke-width: 0.8; stroke-linejoin: miter; stroke-linecap: square"/>
   </g>
   <g id="text_16">
    <!-- Demand vs MPC forecast -->
    <g style="fill: #d8e2f4" transform="translate(296.157812 19.44) scale(0.12 -0.12)">
     <defs>
      <path id="ArialMT-44" d="M 494 0 
L 494 4581 
L 2072 4581 
Q 2606 4581 2888 4516 
Q 3281 4425 3559 4188 
Q 3922 3881 4101 3404 
Q 4281 2928 4281 2316 
Q 4281 1794 4159 1391 
Q 4038 988 3847 723 
Q 3656 459 3429 307 
Q 3203 156 2883 78 
Q 2563 0 2147 0 
L 494 0 
z
M 1100 541 
L 2078 541 
Q 2531 541 2789 625 
Q 3047 709 3200 863 
Q 3416 1078 3536 1442 
Q 3656 1806 3656 2325 
Q 3656 3044 3420 3430 
Q 3184 3816 2847 3947 
Q 2603 4041 2063 4041 
L 1100 4041 
L 1100 541 
z
" transform="scale(0.015625)"/>
      <path id="ArialMT-61" d="M 2588 409 
Q 2275 144 1986 34 
Q 1697 -75 1366 -75 
Q 819 -75 525 192 
Q 231 459 231 875 
Q 231 1119 342 1320 
Q 453 1522 633 1644 
Q 813 1766 1038 1828 
Q 1203 1872 1538 1913 
Q 2219 1994 2541 2106 
Q 2544 2222 2544 2253 
Q 2544 2597 2384 2738 
Q 2169 2928 1744 2928 
Q 1347 2928 1158 2789 
Q 969 2650 878 2297 
L 328 2372 
Q 403 2725 575 2942 
Q 747 3159 1072 3276 
Q 1397 3394 1825 3394 
Q 2250 3394 2515 3294 
Q 2781 3194 2906 3042 
Q 3031 2891 3081 2659 
Q 3109 2516 3109 2141 
L 3109 1391 
Q 3109 606 3145 398 
Q 3181 191 3288 0 
L 2700 0 
Q 2613 175 2588 409 
z
M 2541 1666 
Q 2234 1541 1622 1453 
Q 1275 1403 1131 1340 
Q 988 1278 909 1158 
Q 831 1038 831 891 
Q 831 666 1001 516 
Q 1172 366 1500 366 
Q 1825 366 2078 508 
Q 2331 650 2450 897 
Q 2541 1088 2541 1459 
L 2541 1666 
z
" transform="scale(0.015625)"/>
      <path id="ArialMT-76" d="M 1344 0 
L 81 3319 
L 675 3319 
L 1388 1331 
Q 1503 1009 1600 663 
Q 1675 925 1809 1294 
L 2547 3319 
L 3125 3319 
L 1869 0 
L 1344 0 
z
" transform="scale(0.015625)"/>
      <path id="ArialMT-4d" d="M 475 0 
L 475 4581 
L 1388 4581 
L 2472 1338 
Q 2622 884 2691 659 
Q 2769 909 2934 1394 
L 4031 4581 
L 4847 4581 
L 4847 0 
L 4263 0 
L 4263 3834 
L 2931 0 
L 2384 0 
L 1059 3900 
L 1059 0 
L 475 0 
z
" transform="scale(0.015625)"/>
      <path id="ArialMT-50" d="M 494 0 
L 494 4581 
L 2222 4581 
Q 2678 4581 2919 4538 
Q 3256 4481 3484 4323 
Q 3713 4166 3852 3881 
Q 3991 3597 3991 3256 
Q 3991 2672 3619 2267 
Q 3247 1863 2275 1863 
L 1100 1863 
L 1100 0 
L 494 0 
z
M 1100 2403 
L 2284 2403 
Q 2872 2403 3119 2622 
Q 3366 2841 3366 3238 
Q 3366 3525 3220 3729 
Q 3075 3934 2838 4000 
Q 2684 4041 2272 4041 
L 1100 4041 
L 1100 2403 
z
" transform="scale(0.015625)"/>
      <path id="ArialMT-43" d="M 3763 1606 
L 4369 1453 
Q 4178 706 3683 314 
Q 3188 -78 2472 -78 
Q 1731 -78 1267 223 
Q 803 525 561 1097 
Q 319 1669 319 2325 
Q 319 3041 592 3573 
Q 866 4106 1370 4382 
Q 1875 4659 2481 4659 
Q 3169 4659 3637 4309 
Q 4106 3959 4291 3325 
L 3694 3184 
Q 3534 3684 3231 3912 
Q 2928 4141 2469 4141 
Q 1941 4141 1586 3887 
Q 1231 3634 1087 3207 
Q 944 2781 944 2328 
Q 944 1744 1114 1308 
Q 1284 872 1643 656 
Q 2003 441 2422 441 
Q 2931 441 3284 734 
Q 3638 1028 3763 1606 
z
" transform="scale(0.015625)"/>
      <path id="ArialMT-66" d="M 556 0 
L 556 2881 
L 59 2881 
L 59 3319 
L 556 3319 
L 556 3672 
Q 556 4006 616 4169 
Q 697 4388 901 4523 
Q 1106 4659 1475 4659 
Q 1713 4659 2000 4603 
L 1916 4113 
Q 1741 4144 1584 4144 
Q 1328 4144 1222 4034 
Q 1116 3925 1116 3625 
L 1116 3319 
L 1763 3319 
L 1763 2881 
L 1116 2881 
L 1116 0 
L 556 0 
z
" transform="scale(0.015625)"/>
     </defs>
     <use xlink:href="#ArialMT-44"/>
     <use xlink:href="#ArialMT-65" transform="translate(72.216797 0)"/>
     <use xlink:href="#ArialMT-6d" transform="translate(127.832031 0)"/>
     <use xlink:href="#ArialMT-61" transform="translate(211.132812 0)"/>
     <use xlink:href="#ArialMT-6e" transform="translate(266.748047 0)"/>
     <use xlink:href="#ArialMT-64" transform="translate(322.363281 0)"/>
     <use xlink:href="#ArialMT-20" transform="translate(377.978516 0)"/>
     <use xlink:href="#ArialMT-76" transform="translate(405.761719 0)"/>
     <use xlink:href="#ArialMT-73" transform="translate(455.761719 0)"/>
     <use xlink:href="#ArialMT-20" transform="translate(505.761719 0)"/>
     <use xlink:href="#ArialMT-4d" transform="translate(533.544922 0)"/>
     <use xlink:href="#ArialMT-50" transform="translate(616.845703 0)"/>
     <use xlink:href="#ArialMT-43" transform="translate(683.544922 0)"/>
     <use xlink:href="#ArialMT-20" transform="translate(755.761719 0)"/>
     <use xlink:href="#ArialMT-66" transform="translate(783.544922 0)"/>
     <use xlink:href="#ArialMT-6f" transform="translate(811.328125 0)"/>
     <use xlink:href="#ArialMT-72" transform="translate(866.943359 0)"/>
     <use xlink:href="#ArialMT-65" transform="translate(900.244141 0)"/>
     <use xlink:href="#ArialMT-63" transform="translate(955.859375 0)"/>
     <use xlink:href="#ArialMT-61" transform="translate(1005.859375 0)"/>
     <use xlink:href="#ArialMT-73" transform="translate(1061.474609 0)"/>
     <use xlink:href="#ArialMT-74" transform="translate(1111.474609 0)"/>
    </g>
   </g>
   <g id="legend_1">
    <g id="line2d_29">
     <path d="M 521.698437 38.097813 
L 531.698437 38.097813 
L 541.698437 38.097813 
" style="fill: none; stroke: #7cf7d4; stroke-width: 2.6; stroke-linecap: square"/>
    </g>
    <g id="text_17">
     <!-- actual demand -->
     <g style="fill: #d8e2f4" transform="translate(549.698437 41.597813) scale(0.1 -0.1)">
      <defs>
       <path id="ArialMT-6c" d="M 409 0 
L 409 4581 
L 972 4581 
L 972 0 
L 409 0 
z
" transform="scale(0.015625)"/>
      </defs>
      <use xlink:href="#ArialMT-61"/>
      <use xlink:href="#ArialMT-63" transform="translate(55.615234 0)"/>
      <use xlink:href="#ArialMT-74" transform="translate(105.615234 0)"/>
      <use xlink:href="#ArialMT-75" transform="translate(133.398438 0)"/>
      <use xlink:href="#ArialMT-61" transform="translate(189.013672 0)"/>
      <use xlink:href="#ArialMT-6c" transform="translate(244.628906 0)"/>
      <use xlink:href="#ArialMT-20" transform="translate(266.845703 0)"/>
      <use xlink:href="#ArialMT-64" transform="translate(294.628906 0)"/>
      <use xlink:href="#ArialMT-65" transform="translate(350.244141 0)"/>
      <use xlink:href="#ArialMT-6d" transform="translate(405.859375 0)"/>
      <use xlink:href="#ArialMT-61" transform="translate(489.160156 0)"/>
      <use xlink:href="#ArialMT-6e" transform="translate(544.775391 0)"/>
      <use xlink:href="#ArialMT-64" transform="translate(600.390625 0)"/>
     </g>
    </g>
    <g id="line2d_30">
     <path d="M 521.698437 52.243125 
L 531.698437 52.243125 
L 541.698437 52.243125 
" style="fill: none; stroke-dasharray: 7.4,3.2; stroke-dashoffset: 0; stroke: #5cc8ff; stroke-width: 2"/>
    </g>
    <g id="text_18">
     <!-- MPC short-horizon forecast -->
     <g style="fill: #d8e2f4" transform="translate(549.698437 55.743125) scale(0.1 -0.1)">
      <defs>
       <path id="ArialMT-68" d="M 422 0 
L 422 4581 
L 984 4581 
L 984 2938 
Q 1378 3394 1978 3394 
Q 2347 3394 2619 3248 
Q 2891 3103 3008 2847 
Q 3125 2591 3125 2103 
L 3125 0 
L 2563 0 
L 2563 2103 
Q 2563 2525 2380 2717 
Q 2197 2909 1863 2909 
Q 1613 2909 1392 2779 
Q 1172 2650 1078 2428 
Q 984 2206 984 1816 
L 984 0 
L 422 0 
z
" transform="scale(0.015625)"/>
       <path id="ArialMT-2d" d="M 203 1375 
L 203 1941 
L 1931 1941 
L 1931 1375 
L 203 1375 
z
" transform="scale(0.015625)"/>
       <path id="ArialMT-7a" d="M 125 0 
L 125 456 
L 2238 2881 
Q 1878 2863 1603 2863 
L 250 2863 
L 250 3319 
L 2963 3319 
L 2963 2947 
L 1166 841 
L 819 456 
Q 1197 484 1528 484 
L 3063 484 
L 3063 0 
L 125 0 
z
" transform="scale(0.015625)"/>
      </defs>
      <use xlink:href="#ArialMT-4d"/>
      <use xlink:href="#ArialMT-50" transform="translate(83.300781 0)"/>
      <use xlink:href="#ArialMT-43" transform="translate(150 0)"/>
      <use xlink:href="#ArialMT-20" transform="translate(222.216797 0)"/>
      <use xlink:href="#ArialMT-73" transform="translate(250 0)"/>
      <use xlink:href="#ArialMT-68" transform="translate(300 0)"/>
      <use xlink:href="#ArialMT-6f" transform="translate(355.615234 0)"/>
      <use xlink:href="#ArialMT-72" transform="translate(411.230469 0)"/>
      <use xlink:href="#ArialMT-74" transform="translate(444.53125 0)"/>
      <use xlink:href="#ArialMT-2d" transform="translate(472.314453 0)"/>
      <use xlink:href="#ArialMT-68" transform="translate(505.615234 0)"/>
      <use xlink:href="#ArialMT-6f" transform="translate(561.230469 0)"/>
      <use xlink:href="#ArialMT-72" transform="translate(616.845703 0)"/>
      <use xlink:href="#ArialMT-69" transform="translate(650.146484 0)"/>
      <use xlink:href="#ArialMT-7a" transform="translate(672.363281 0)"/>
      <use xlink:href="#ArialMT-6f" transform="translate(722.363281 0)"/>
      <use xlink:href="#ArialMT-6e" transform="translate(777.978516 0)"/>
      <use xlink:href="#ArialMT-20" transform="translate(833.59375 0)"/>
      <use xlink:href="#ArialMT-66" transform="translate(861.376953 0)"/>
      <use xlink:href="#ArialMT-6f" transform="translate(889.160156 0)"/>
      <use xlink:href="#ArialMT-72" transform="translate(944.775391 0)"/>
      <use xlink:href="#ArialMT-65" transform="translate(978.076172 0)"/>
      <use xlink:href="#ArialMT-63" transform="translate(1033.691406 0)"/>
      <use xlink:href="#ArialMT-61" transform="translate(1083.691406 0)"/>
      <use xlink:href="#ArialMT-73" transform="translate(1139.306641 0)"/>
      <use xlink:href="#ArialMT-74" transform="translate(1189.306641 0)"/>
     </g>
    </g>
   </g>
  </g>
 </g>
 <defs>
  <clipPath id="p1406fa208e">
   <rect x="48.62" y="25.44" width="631.78" height="235"/>
  </clipPath>
 </defs>
</svg>
