<svg xmlns="http://www.w3.org/2000/svg" viewBox="0 0 960 540" role="img" aria-labelledby="title desc">
  <title id="title">Toy Load Grafana dashboard preview</title>
  <desc id="desc">Dashboard preview with request rate, latency, in-flight requests, targets, controller events, CPU, and memory panels.</desc>
  <defs>
    <linearGradient id="bg" x1="0" y1="0" x2="1" y2="1">
      <stop offset="0" stop-color="#07101f"/>
      <stop offset="1" stop-color="#11152b"/>
    </linearGradient>
    <linearGradient id="panel" x1="0" y1="0" x2="1" y2="1">
      <stop offset="0" stop-color="#17243f"/>
      <stop offset="1" stop-color="#111a2d"/>
    </linearGradient>
    <filter id="shadow" x="-20%" y="-20%" width="140%" height="140%">
      <feDropShadow dx="0" dy="16" stdDeviation="18" flood-color="#000" flood-opacity="0.38"/>
    </filter>
  </defs>

  <rect width="960" height="540" rx="32" fill="url(#bg)"/>
  <rect x="42" y="38" width="876" height="464" rx="28" fill="#0e1729" stroke="#2b416b" filter="url(#shadow)"/>

  <g font-family="Arial, sans-serif">
    <text x="74" y="82" fill="#ecf3ff" font-size="32" font-weight="850">Toy Load Dashboard</text>
    <text x="74" y="113" fill="#9fb0cd" font-size="17">Prometheus panels for live autoscaling runs.</text>
    <rect x="728" y="62" width="156" height="38" rx="14" fill="#101a2d" stroke="#283756"/>
    <circle cx="754" cy="81" r="7" fill="#60e6a8"/>
    <text x="772" y="87" fill="#cfe7ff" font-size="15" font-weight="800">targets up</text>
  </g>

  <g font-family="Arial, sans-serif">
    <rect x="74" y="146" width="390" height="132" rx="22" fill="url(#panel)" stroke="#283756"/>
    <text x="100" y="182" fill="#ecf3ff" font-size="20" font-weight="850">Request rate</text>
    <path d="M100 238 C150 234 206 236 252 226 C304 214 316 168 356 172 C398 176 426 210 438 222" fill="none" stroke="#5cc8ff" stroke-width="6" stroke-linecap="round"/>

    <rect x="496" y="146" width="346" height="132" rx="22" fill="url(#panel)" stroke="#283756"/>
    <text x="522" y="182" fill="#ecf3ff" font-size="20" font-weight="850">Latency</text>
    <path d="M522 238 C584 234 642 230 682 218 C714 208 722 184 754 186 C792 190 818 212 838 226" fill="none" stroke="#ffb86b" stroke-width="6" stroke-linecap="round"/>
    <path d="M522 250 C584 246 642 244 682 236 C718 230 724 208 754 210 C794 214 818 232 838 242" fill="none" stroke="#5cc8ff" stroke-width="4" stroke-linecap="round"/>
    <text x="754" y="184" fill="#ffb86b" font-size="17" font-weight="850">p95 / p99</text>

    <rect x="74" y="316" width="176" height="114" rx="22" fill="url(#panel)" stroke="#283756"/>
    <text x="100" y="350" fill="#ecf3ff" font-size="20" font-weight="850">In-flight</text>
    <text x="100" y="400" fill="#ecf3ff" font-size="42" font-weight="900">11.3</text>

    <rect x="280" y="316" width="176" height="114" rx="22" fill="url(#panel)" stroke="#283756"/>
    <text x="306" y="350" fill="#ecf3ff" font-size="20" font-weight="850">Controller</text>
    <text x="306" y="395" fill="#60e6a8" font-size="32" font-weight="900">optimal</text>

    <rect x="486" y="316" width="356" height="114" rx="22" fill="url(#panel)" stroke="#283756"/>
    <text x="512" y="350" fill="#ecf3ff" font-size="20" font-weight="850">Runtime signals</text>
    <path d="M512 392 C552 388 590 378 630 372 C668 368 696 380 726 390" fill="none" stroke="#ff6ea8" stroke-width="6" stroke-linecap="round"/>
    <path d="M640 410 C690 406 742 404 812 400" fill="none" stroke="#60e6a8" stroke-width="6" stroke-linecap="round"/>
  </g>
</svg>
