<svg xmlns="http://www.w3.org/2000/svg" viewBox="0 0 960 540" role="img" aria-labelledby="title desc">
  <title id="title">Hybrid-SA spike control trace</title>
  <desc id="desc">Curated Hybrid-SA spike run with throughput, success, solver status, safety scale-ups, observed demand, and replica ramp.</desc>
  <defs>
    <linearGradient id="bg" x1="0" y1="0" x2="1" y2="1">
      <stop offset="0" stop-color="#06111f"/>
      <stop offset="0.58" stop-color="#0b1730"/>
      <stop offset="1" stop-color="#150d28"/>
    </linearGradient>
    <linearGradient id="card" x1="0" y1="0" x2="1" y2="1">
      <stop offset="0" stop-color="#172846"/>
      <stop offset="1" stop-color="#111a2d"/>
    </linearGradient>
    <linearGradient id="burst" x1="0" y1="0" x2="0" y2="1">
      <stop offset="0" stop-color="#ff6ea8" stop-opacity="0.24"/>
      <stop offset="1" stop-color="#ff6ea8" stop-opacity="0.04"/>
    </linearGradient>
    <filter id="shadow" x="-20%" y="-20%" width="140%" height="140%">
      <feDropShadow dx="0" dy="16" stdDeviation="18" flood-color="#000" flood-opacity="0.38"/>
    </filter>
  </defs>

  <rect width="960" height="540" rx="32" fill="url(#bg)"/>
  <circle cx="116" cy="74" r="180" fill="#5cc8ff" opacity="0.08"/>
  <circle cx="890" cy="58" r="210" fill="#ff6ea8" opacity="0.08"/>

  <g font-family="Arial, sans-serif">
    <text x="48" y="64" fill="#ecf3ff" font-size="34" font-weight="850">Hybrid-SA spike run</text>
    <text x="48" y="98" fill="#9fb0cd" font-size="18">Controller behavior under burst load. Full comparisons stay in benchmark reports.</text>
  </g>

  <g filter="url(#shadow)" font-family="Arial, sans-serif">
    <rect x="48" y="132" width="190" height="96" rx="22" fill="url(#card)" stroke="#2b416b"/>
    <text x="74" y="166" fill="#9fb0cd" font-size="15" font-weight="850" letter-spacing="1.2">THROUGHPUT</text>
    <text x="74" y="207" fill="#ecf3ff" font-size="38" font-weight="900">201.5</text>
    <text x="178" y="207" fill="#9fb0cd" font-size="18">rps</text>

    <rect x="270" y="132" width="190" height="96" rx="22" fill="url(#card)" stroke="#2b416b"/>
    <text x="296" y="166" fill="#9fb0cd" font-size="15" font-weight="850" letter-spacing="1.2">SUCCESS</text>
    <text x="296" y="207" fill="#60e6a8" font-size="38" font-weight="900">100%</text>

    <rect x="492" y="132" width="190" height="96" rx="22" fill="url(#card)" stroke="#2b416b"/>
    <text x="518" y="166" fill="#9fb0cd" font-size="15" font-weight="850" letter-spacing="1.2">SOLVER</text>
    <text x="518" y="207" fill="#60e6a8" font-size="38" font-weight="900">optimal</text>

    <rect x="714" y="132" width="198" height="96" rx="22" fill="url(#card)" stroke="#2b416b"/>
    <text x="740" y="166" fill="#9fb0cd" font-size="15" font-weight="850" letter-spacing="1.2">SAFETY PATH</text>
    <text x="740" y="207" fill="#ecf3ff" font-size="38" font-weight="900">6</text>
    <text x="779" y="207" fill="#ffb86b" font-size="20" font-weight="850">scale-ups</text>
  </g>

  <g filter="url(#shadow)">
    <rect x="48" y="270" width="864" height="196" rx="26" fill="#101a2d" stroke="#2b416b"/>
    <rect x="516" y="320" width="126" height="116" rx="18" fill="url(#burst)" stroke="#ff6ea8" stroke-opacity="0.38"/>
    <g stroke="#233756" stroke-width="1">
      <line x1="102" y1="426" x2="868" y2="426"/>
      <line x1="102" y1="376" x2="868" y2="376"/>
    </g>
    <path d="M104 424 C240 424 356 424 438 421 C478 417 510 400 528 372 C548 334 566 310 596 306 C636 302 682 324 720 360 C760 398 792 428 868 426" fill="none" stroke="#5cc8ff" stroke-width="6" stroke-linecap="round" stroke-linejoin="round"/>
    <path d="M104 426 C262 426 384 426 458 425 C506 422 536 404 572 374 C612 340 646 318 692 324 C746 332 802 382 868 414" fill="none" stroke="#ff6ea8" stroke-width="6" stroke-linecap="round" stroke-linejoin="round"/>
    <g font-family="Arial, sans-serif">
      <text x="78" y="308" fill="#ecf3ff" font-size="24" font-weight="850">Demand and replicas</text>
      <text x="78" y="334" fill="#9fb0cd" font-size="17">Observed RPS rises first; replica target ramps up and drains down.</text>
      <text x="534" y="312" fill="#ff6ea8" font-size="18" font-weight="850">30s burst</text>
      <rect x="672" y="292" width="198" height="54" rx="16" fill="#0b1020" stroke="#283756"/>
      <circle cx="696" cy="313" r="7" fill="#5cc8ff"/>
      <text x="714" y="319" fill="#cfe7ff" font-size="16">observed RPS</text>
      <circle cx="696" cy="334" r="7" fill="#ff6ea8"/>
      <text x="714" y="340" fill="#ffd7e7" font-size="16">replica target</text>
      <text x="100" y="450" fill="#9fb0cd" font-size="15">0s</text>
      <text x="518" y="450" fill="#9fb0cd" font-size="15">190s</text>
      <text x="834" y="450" fill="#9fb0cd" font-size="15">395s</text>
    </g>
  </g>

  <g font-family="Arial, sans-serif">
    <text x="48" y="506" fill="#9fb0cd" font-size="15">Curated run: phase-2 p95 174 ms, p99 255 ms, max latency 403 ms.</text>
  </g>
</svg>
